<svg xmlns="http://www.w3.org/2000/svg" version="1.1" xmlns:xlink="http://www.w3.org/1999/xlink" xmlns:svgjs="http://svgjs.dev/svgjs" width="2000" height="277" viewBox="0 0 2000 277"><g transform="matrix(1,0,0,1,-1.2121212121212466,-0.16355743360645647)"><svg viewBox="0 0 396 55" data-background-color="#ffffff" preserveAspectRatio="xMidYMid meet" height="277" width="2000" xmlns="http://www.w3.org/2000/svg" xmlns:xlink="http://www.w3.org/1999/xlink"><g id="tight-bounds" transform="matrix(1,0,0,1,0.2400000000000091,0.03247530270164134)"><svg viewBox="0 0 395.52 54.935049394596724" height="54.935049394596724" width="395.52"><g><svg viewBox="0 0 519.2500991916927 72.12032222705524" height="54.935049394596724" width="395.52"><g transform="matrix(1,0,0,1,0,9.967425141365812)"><svg viewBox="0 0 395.52 52.185471944323616" height="52.185471944323616" width="395.52"><g id="textblocktransform"><svg viewBox="0 0 395.52 52.185471944323616" height="52.185471944323616" width="395.52" id="textblock"><g><svg viewBox="0 0 395.52 52.185471944323616" height="52.185471944323616" width="395.52"><g transform="matrix(1,0,0,1,0,0)"><svg width="395.52" viewBox="1.61 -33.54 336.74 44.43" height="52.185471944323616" data-palette-color="#ca3433"><g class="wordmark-text-0" data-fill-palette-color="primary" id="text-0"><path d="M27.54-8.35L27.54 0 1.61 0 1.61-2.15 4.2-2.34Q4.74-2.39 5.02-2.73 5.3-3.08 5.3-3.44L5.3-3.44 5.3-30.1Q5.3-30.47 5.02-30.82 4.74-31.18 4.2-31.2L4.2-31.2 1.61-31.4 1.61-33.54 25.9-33.54 25.9-26.1 22.9-26.1 22.14-30.2Q22.12-30.57 21.85-30.86 21.58-31.15 21.24-31.15L21.24-31.15 10.4-31.15 10.4-18.7 17.9-18.7Q18.24-18.7 18.52-18.99 18.8-19.29 18.8-19.56L18.8-19.56 19.31-23 21.85-23 21.85-11.84 19.31-11.84 18.8-15.31Q18.8-15.58 18.51-15.89 18.21-16.21 17.9-16.21L17.9-16.21 10.4-16.21 10.4-2.44 23.05-2.44Q23.36-2.44 23.65-2.8 23.93-3.15 23.95-3.39L23.95-3.39 24.85-8.35 27.54-8.35ZM47.34-7.25L47.34-7.25Q47.34-3.56 44.8-1.48 42.26 0.61 37.79 0.61L37.79 0.61Q35.5 0.61 33.55 0.13 31.61-0.34 30.86-0.66L30.86-0.66 30.86-7.3 33.4-7.3 34.01-3.05Q34.76-2.56 35.87-2.11 36.98-1.66 38.45-1.66L38.45-1.66Q40.6-1.66 41.77-2.86 42.94-4.05 42.94-5.54L42.94-5.54Q42.94-7.52 41.53-8.53 40.11-9.55 37.5-10.79L37.5-10.79 36.84-11.11Q34.1-12.4 32.65-13.81 31.2-15.21 31.2-17.46L31.2-17.46Q31.2-20.8 33.54-22.75 35.89-24.71 40.21-24.71L40.21-24.71Q42.4-24.71 44.13-24.3 45.85-23.9 46.6-23.56L46.6-23.56 46.6-17.65 43.99-17.65 43.6-21.14Q43.06-21.56 42.01-21.92 40.96-22.29 39.79-22.29L39.79-22.29Q37.74-22.29 36.74-21.35 35.74-20.41 35.74-18.95L35.74-18.95Q35.74-17.26 36.95-16.27 38.16-15.28 41.33-13.84L41.33-13.84Q43.94-12.65 45.64-11.17 47.34-9.69 47.34-7.25ZM65.69-3.05L65.69-3.05 65.69-1.05Q65.69-1.05 64.75-0.63 63.81-0.22 62.29 0.2 60.76 0.61 58.95 0.61L58.95 0.61Q56.15 0.61 54.87-0.72 53.58-2.05 53.58-5L53.58-5 53.58-21.61 50.39-21.61 50.39-23.24 53.8-24.85 56.05-30.15 58.25-30.15 58.25-24.1 65.3-24.1 65.3-21.61 58.25-21.61 58.25-7.64Q58.25-4.66 59.25-3.43 60.25-2.2 62.25-2.2L62.25-2.2Q63.72-2.2 64.7-2.62 65.69-3.05 65.69-3.05ZM91.52-12.01L91.52-12.01Q91.52-8.47 90.06-5.6 88.59-2.73 85.92-1.06 83.24 0.61 79.58 0.61L79.58 0.61Q75.94 0.61 73.28-1.05 70.62-2.71 69.18-5.57 67.74-8.42 67.74-12.01L67.74-12.01Q67.74-15.58 69.19-18.46 70.65-21.34 73.34-23.02 76.04-24.71 79.73-24.71L79.73-24.71Q83.46-24.71 86.1-23 88.74-21.29 90.13-18.41 91.52-15.53 91.52-12.01ZM86.32-12.06L86.32-12.06Q86.32-14.79 85.6-17.16 84.88-19.53 83.4-21 81.93-22.46 79.68-22.46L79.68-22.46Q77.36-22.46 75.88-21 74.41-19.53 73.7-17.16 72.99-14.79 72.99-12.06L72.99-12.06Q72.99-9.35 73.71-6.97 74.43-4.59 75.91-3.13 77.39-1.66 79.63-1.66L79.63-1.66Q81.93-1.66 83.4-3.13 84.88-4.59 85.6-6.96 86.32-9.33 86.32-12.06ZM119.94 9.01L119.94 10.89 107.83 10.89 107.83 9.01 110.78 8.74Q111.22 8.69 111.53 8.42 111.83 8.15 111.83 7.69L111.83 7.69 111.83-1.34Q110.44-0.66 108.47-0.02 106.51 0.61 104.82 0.61L104.82 0.61Q101.75 0.61 99.54-1.03 97.33-2.66 96.13-5.4 94.94-8.13 94.94-11.45L94.94-11.45Q94.94-17.58 98.74-21.14 102.55-24.71 109.39-24.71L109.39-24.71Q110.76-24.71 112.83-24.49 114.91-24.27 116.47-23.9L116.47-23.9 116.47 7.69Q116.47 8.15 116.77 8.41 117.08 8.67 117.52 8.74L117.52 8.74 119.94 9.01ZM111.83-3.05L111.83-3.05 111.83-21.9Q111.15-22.05 110.27-22.23 109.39-22.41 108.39-22.41L108.39-22.41Q104.29-22.41 102.13-19.63 99.97-16.85 99.97-12.26L99.97-12.26Q99.97-9.69 100.73-7.42 101.5-5.15 103.18-3.75 104.85-2.34 107.53-2.34L107.53-2.34Q108.46-2.34 109.73-2.58 111-2.81 111.83-3.05ZM148.06-1.95L148.06 0 140.12 0 140.12-2.86Q139.27-2.2 137.95-1.39 136.63-0.59 135.12 0.01 133.61 0.61 132.12 0.61L132.12 0.61Q128.89 0.61 127.05-1.33 125.21-3.27 125.21-7.5L125.21-7.5 125.21-21.04 121.72-21.04 121.72-22.75 127.87-24.71 129.87-24.71 129.87-8.45Q129.87-5.79 130.96-4.3 132.04-2.81 134.7-2.81L134.7-2.81Q136.24-2.81 137.73-3.33 139.22-3.86 140.12-4.3L140.12-4.3 140.12-21.04 136.61-21.04 136.61-22.75 142.71-24.71 144.76-24.71 144.76-3.2Q144.76-2.73 145.09-2.44 145.42-2.15 145.86-2.1L145.86-2.1 148.06-1.95ZM171.91-5.54L171.91-2.49Q169.81-1.2 167.38-0.29 164.95 0.61 162.41 0.61L162.41 0.61Q159.38 0.61 156.74-0.74 154.09-2.1 152.45-4.86 150.82-7.62 150.82-11.79L150.82-11.79Q150.82-15.7 152.33-18.6 153.84-21.51 156.5-23.11 159.16-24.71 162.56-24.71L162.56-24.71Q167.22-24.71 169.57-21.81 171.91-18.92 171.91-14.45L171.91-14.45Q171.91-14.21 171.91-13.81 171.91-13.4 171.86-13.06L171.86-13.06 155.65-13.06Q155.65-11.16 156.05-9.27 156.45-7.37 157.41-5.83 158.36-4.3 159.97-3.37 161.58-2.44 164-2.44L164-2.44Q166.15-2.44 168.19-3.43 170.22-4.42 171.91-5.54L171.91-5.54ZM155.92-15.31L166.9-15.31 166.9-16.41Q166.9-18.87 165.72-20.56 164.54-22.24 162.05-22.24L162.05-22.24Q159.58-22.24 157.85-20.39 156.11-18.53 155.92-15.31L155.92-15.31ZM201.15-8.35L201.15 0 175.23 0 175.23-2.15 177.81-2.34Q178.35-2.39 178.63-2.73 178.91-3.08 178.91-3.44L178.91-3.44 178.91-30.1Q178.91-30.47 178.63-30.82 178.35-31.18 177.81-31.2L177.81-31.2 175.23-31.4 175.23-33.54 199.52-33.54 199.52-26.1 196.52-26.1 195.76-30.2Q195.73-30.57 195.47-30.86 195.2-31.15 194.86-31.15L194.86-31.15 184.02-31.15 184.02-18.7 191.51-18.7Q191.85-18.7 192.13-18.99 192.41-19.29 192.41-19.56L192.41-19.56 192.93-23 195.47-23 195.47-11.84 192.93-11.84 192.41-15.31Q192.41-15.58 192.12-15.89 191.83-16.21 191.51-16.21L191.51-16.21 184.02-16.21 184.02-2.44 196.66-2.44Q196.98-2.44 197.26-2.8 197.54-3.15 197.57-3.39L197.57-3.39 198.47-8.35 201.15-8.35ZM227.76-1.95L227.76 0 217.02 0 217.02-1.95 218.71-2.15Q219.24-2.2 219.24-2.76L219.24-2.76Q219.24-2.91 219.17-3.05L219.17-3.05 214.87-9.45 209.97-3.05Q209.84-2.93 209.84-2.66L209.84-2.66Q209.84-2.17 210.26-2.15L210.26-2.15 212.77-1.95 212.77 0 203.25 0 203.25-1.95 206.11-2.34 213.26-11.65 206.47-21.7 203.52-22.14 203.52-24.1 214.51-24.1 214.51-22.14 212.77-21.9Q212.19-21.83 212.19-21.26L212.19-21.26Q212.19-21.12 212.26-21L212.26-21 216.22-15.41 220.56-21Q220.68-21.17 220.68-21.34L220.68-21.34Q220.68-21.85 220.22-21.9L220.22-21.9 218.07-22.14 218.07-24.1 227.06-24.1 227.06-22.14 224.37-21.7 217.66-13.16 225.05-2.34 227.76-1.95ZM254.49-12.4L254.49-12.4Q254.49-8.47 252.98-5.54 251.47-2.61 248.63-1 245.8 0.61 241.85 0.61L241.85 0.61Q240.94 0.61 239.91 0.49 238.87 0.37 238.14 0.26 237.4 0.15 237.4 0.15L237.4 0.15 237.4 7.59Q237.4 8.06 237.72 8.33 238.04 8.59 238.5 8.64L238.5 8.64 241.46 8.96 241.46 10.89 229.3 10.89 229.3 8.96 231.69 8.64Q232.74 8.57 232.74 7.59L232.74 7.59 232.74-20.56 229.3-20.56 229.3-22.19 235.45-24.1 237.4-24.1 237.4-21.61Q237.4-21.61 238.03-22.07 238.65-22.53 239.71-23.16 240.77-23.78 242.13-24.24 243.48-24.71 244.95-24.71L244.95-24.71Q247.54-24.71 249.7-23.18 251.86-21.66 253.18-18.9 254.49-16.14 254.49-12.4ZM249.49-11.69L249.49-11.69Q249.49-14.28 248.7-16.43 247.9-18.58 246.35-19.89 244.8-21.19 242.51-21.19L242.51-21.19Q241.26-21.19 240.09-20.83 238.92-20.46 238.16-20.08 237.4-19.7 237.4-19.7L237.4-19.7 237.4-2.49Q237.4-2.49 238.66-2.1 239.92-1.71 241.46-1.71L241.46-1.71Q244.22-1.71 245.99-3.13 247.76-4.54 248.62-6.82 249.49-9.11 249.49-11.69ZM275.24-23.95L275.24-18.99 273.29-18.99Q272.83-19.56 272.18-19.96 271.53-20.36 270.6-20.36L270.6-20.36Q269.41-20.36 268.15-19.53 266.89-18.7 265.6-17.26L265.6-17.26 265.6-3.2Q265.6-2.15 266.65-2.1L266.65-2.1 269.95-1.95 269.95 0 257.45 0 257.45-1.9 259.91-2.1Q260.35-2.15 260.66-2.44 260.96-2.73 260.96-3.2L260.96-3.2 260.96-20.56 257.35-20.56 257.35-22.19 263.55-24.1 265.6-24.1 265.6-19.65Q266.33-20.46 267.43-21.66 268.53-22.85 269.77-23.78 271.02-24.71 272.19-24.71L272.19-24.71Q272.97-24.71 273.88-24.46 274.78-24.22 275.24-23.95L275.24-23.95ZM298.56-5.54L298.56-2.49Q296.46-1.2 294.03-0.29 291.6 0.61 289.06 0.61L289.06 0.61Q286.03 0.61 283.38-0.74 280.73-2.1 279.1-4.86 277.46-7.62 277.46-11.79L277.46-11.79Q277.46-15.7 278.98-18.6 280.49-21.51 283.15-23.11 285.81-24.71 289.21-24.71L289.21-24.71Q293.87-24.71 296.21-21.81 298.56-18.92 298.56-14.45L298.56-14.45Q298.56-14.21 298.56-13.81 298.56-13.4 298.51-13.06L298.51-13.06 282.3-13.06Q282.3-11.16 282.7-9.27 283.1-7.37 284.05-5.83 285.01-4.3 286.62-3.37 288.23-2.44 290.65-2.44L290.65-2.44Q292.79-2.44 294.83-3.43 296.87-4.42 298.56-5.54L298.56-5.54ZM282.57-15.31L293.55-15.31 293.55-16.41Q293.55-18.87 292.37-20.56 291.18-22.24 288.69-22.24L288.69-22.24Q286.23-22.24 284.49-20.39 282.76-18.53 282.57-15.31L282.57-15.31ZM318.45-7.25L318.45-7.25Q318.45-3.56 315.91-1.48 313.37 0.61 308.91 0.61L308.91 0.61Q306.61 0.61 304.67 0.13 302.73-0.34 301.97-0.66L301.97-0.66 301.97-7.3 304.51-7.3 305.12-3.05Q305.88-2.56 306.99-2.11 308.1-1.66 309.56-1.66L309.56-1.66Q311.71-1.66 312.89-2.86 314.06-4.05 314.06-5.54L314.06-5.54Q314.06-7.52 312.64-8.53 311.22-9.55 308.61-10.79L308.61-10.79 307.95-11.11Q305.22-12.4 303.77-13.81 302.31-15.21 302.31-17.46L302.31-17.46Q302.31-20.8 304.66-22.75 307-24.71 311.32-24.71L311.32-24.71Q313.52-24.71 315.24-24.3 316.96-23.9 317.72-23.56L317.72-23.56 317.72-17.65 315.11-17.65 314.72-21.14Q314.18-21.56 313.13-21.92 312.08-22.29 310.91-22.29L310.91-22.29Q308.86-22.29 307.86-21.35 306.85-20.41 306.85-18.95L306.85-18.95Q306.85-17.26 308.06-16.27 309.27-15.28 312.45-13.84L312.45-13.84Q315.06-12.65 316.75-11.17 318.45-9.69 318.45-7.25ZM338.35-7.25L338.35-7.25Q338.35-3.56 335.81-1.48 333.27 0.61 328.8 0.61L328.8 0.61Q326.51 0.61 324.56 0.13 322.62-0.34 321.87-0.66L321.87-0.66 321.87-7.3 324.41-7.3 325.02-3.05Q325.77-2.56 326.88-2.11 327.99-1.66 329.46-1.66L329.46-1.66Q331.61-1.66 332.78-2.86 333.95-4.05 333.95-5.54L333.95-5.54Q333.95-7.52 332.54-8.53 331.12-9.55 328.51-10.79L328.51-10.79 327.85-11.11Q325.11-12.4 323.66-13.81 322.21-15.21 322.21-17.46L322.21-17.46Q322.21-20.8 324.55-22.75 326.9-24.71 331.22-24.71L331.22-24.71Q333.41-24.71 335.14-24.3 336.86-23.9 337.61-23.56L337.61-23.56 337.61-17.65 335-17.65 334.61-21.14Q334.07-21.56 333.02-21.92 331.97-22.29 330.8-22.29L330.8-22.29Q328.75-22.29 327.75-21.35 326.75-20.41 326.75-18.95L326.75-18.95Q326.75-17.26 327.96-16.27 329.17-15.28 332.34-13.84L332.34-13.84Q334.95-12.65 336.65-11.17 338.35-9.69 338.35-7.25Z" fill="#ffffff" data-fill-palette-color="primary"></path></g></svg></g></svg></g></svg></g></svg></g><g transform="matrix(1,0,0,1,407.8397374747281,0)"><svg viewBox="0 0 111.41036171696457 72.12032222705524" height="72.12032222705524" width="111.41036171696457"><g><svg xmlns="http://www.w3.org/2000/svg" data-name="Layer 1" viewBox="17.75 27.36 54.5 35.28" x="0" y="0" height="72.12032222705524" width="111.41036171696457" class="icon-icon-0" data-fill-palette-color="accent" id="icon-0"><path data-name="Compound Path" d="M70.15 29.46V41.33H58.28V29.46zM72.25 27.36H56.18V43.42H72.25z" fill="#ffffff" data-fill-palette-color="accent"></path><path data-name="Compound Path" d="M50.93 29.46V41.33H39.07V29.46zM53.03 27.36H37V43.42H53V27.36Z" fill="#ffffff" data-fill-palette-color="accent"></path><path data-name="Compound Path" d="M50.93 48.67V60.54H39.07V48.67zM53.03 46.57H37V62.64H53V46.58Z" fill="#ffffff" data-fill-palette-color="accent"></path><path data-name="Compound Path" d="M31.72 48.67V60.54H19.85V48.67zM33.82 46.57H17.75V62.64H33.82V46.58Z" fill="#ffffff" data-fill-palette-color="accent"></path></svg></g></svg></g></svg></g><defs></defs></svg><rect width="395.52" height="54.935049394596724" fill="none" stroke="none" visibility="hidden"></rect></g></svg></g></svg>